<mxfile host="app.diagrams.net" modified="2022-08-08T23:25:15.324Z" agent="5.0 (Windows NT 10.0; Win64; x64) AppleWebKit/537.36 (KHTML, like Gecko) Chrome/104.0.0.0 Safari/537.36" etag="tJrNNW9ozQiaVgU2xwFb" version="20.2.3" type="github">
  <diagram id="bXbMMbcb9EqZNDJu3NwE" name="Página-1">
    <mxGraphModel dx="868" dy="482" grid="1" gridSize="10" guides="1" tooltips="1" connect="1" arrows="1" fold="1" page="1" pageScale="1" pageWidth="827" pageHeight="1169" math="0" shadow="0">
      <root>
        <mxCell id="0" />
        <mxCell id="1" parent="0" />
        <mxCell id="CgNcNUoA4r0eWXv9V45F-1" value="INÍCIO" style="ellipse;whiteSpace=wrap;html=1;fontSize=10;" vertex="1" parent="1">
          <mxGeometry x="288" y="20" width="110" height="50" as="geometry" />
        </mxCell>
        <mxCell id="CgNcNUoA4r0eWXv9V45F-4" value="&lt;br style=&quot;font-size: 10px;&quot;&gt;&lt;br style=&quot;font-size: 10px;&quot;&gt;INFORME A DATA DO EVENTO" style="shape=manualInput;whiteSpace=wrap;html=1;fontSize=10;" vertex="1" parent="1">
          <mxGeometry x="290" y="90" width="105" height="70" as="geometry" />
        </mxCell>
        <mxCell id="CgNcNUoA4r0eWXv9V45F-5" value="&lt;br style=&quot;font-size: 10px;&quot;&gt;DATA É POSTERIOR A DATA ATUAL?" style="html=1;whiteSpace=wrap;aspect=fixed;shape=isoRectangle;fontSize=10;" vertex="1" parent="1">
          <mxGeometry x="269" y="190" width="150" height="90" as="geometry" />
        </mxCell>
        <mxCell id="CgNcNUoA4r0eWXv9V45F-68" style="edgeStyle=orthogonalEdgeStyle;rounded=0;orthogonalLoop=1;jettySize=auto;html=1;exitX=0;exitY=0.5;exitDx=0;exitDy=0;exitPerimeter=0;entryX=0.011;entryY=0.6;entryDx=0;entryDy=0;entryPerimeter=0;fontSize=10;" edge="1" parent="1" source="CgNcNUoA4r0eWXv9V45F-8" target="CgNcNUoA4r0eWXv9V45F-51">
          <mxGeometry relative="1" as="geometry" />
        </mxCell>
        <mxCell id="CgNcNUoA4r0eWXv9V45F-8" value="&amp;nbsp;CADASTRO NÃO PERMITIDO POR DATA INVALIDA" style="shape=display;whiteSpace=wrap;html=1;fontSize=10;" vertex="1" parent="1">
          <mxGeometry x="90" y="205" width="142.5" height="60" as="geometry" />
        </mxCell>
        <mxCell id="CgNcNUoA4r0eWXv9V45F-9" value="NÃO" style="text;html=1;align=center;verticalAlign=middle;resizable=0;points=[];autosize=1;strokeColor=none;fillColor=none;" vertex="1" parent="1">
          <mxGeometry x="235" y="185" width="50" height="30" as="geometry" />
        </mxCell>
        <mxCell id="CgNcNUoA4r0eWXv9V45F-22" value="SIM" style="text;html=1;align=center;verticalAlign=middle;resizable=0;points=[];autosize=1;strokeColor=none;fillColor=none;" vertex="1" parent="1">
          <mxGeometry x="372.5" y="265" width="40" height="30" as="geometry" />
        </mxCell>
        <mxCell id="CgNcNUoA4r0eWXv9V45F-23" value="DIGITE A IDADE DO PARTICIPANTE" style="shape=display;whiteSpace=wrap;html=1;fontSize=10;" vertex="1" parent="1">
          <mxGeometry x="268" y="310" width="140" height="65" as="geometry" />
        </mxCell>
        <mxCell id="CgNcNUoA4r0eWXv9V45F-24" value="" style="shape=singleArrow;direction=west;whiteSpace=wrap;html=1;" vertex="1" parent="1">
          <mxGeometry x="238" y="222.5" width="30" height="25" as="geometry" />
        </mxCell>
        <mxCell id="CgNcNUoA4r0eWXv9V45F-26" value="&lt;br style=&quot;font-size: 10px;&quot;&gt;IDADE É MAIOR QUE 18?" style="html=1;whiteSpace=wrap;aspect=fixed;shape=isoRectangle;fontSize=10;" vertex="1" parent="1">
          <mxGeometry x="275.84" y="405" width="133.33" height="80" as="geometry" />
        </mxCell>
        <mxCell id="CgNcNUoA4r0eWXv9V45F-28" value="NÃO" style="text;html=1;align=center;verticalAlign=middle;resizable=0;points=[];autosize=1;strokeColor=none;fillColor=none;" vertex="1" parent="1">
          <mxGeometry x="235" y="405" width="50" height="30" as="geometry" />
        </mxCell>
        <mxCell id="CgNcNUoA4r0eWXv9V45F-30" value="SIM" style="text;html=1;align=center;verticalAlign=middle;resizable=0;points=[];autosize=1;strokeColor=none;fillColor=none;" vertex="1" parent="1">
          <mxGeometry x="373" y="475" width="40" height="30" as="geometry" />
        </mxCell>
        <mxCell id="CgNcNUoA4r0eWXv9V45F-67" style="edgeStyle=orthogonalEdgeStyle;rounded=0;orthogonalLoop=1;jettySize=auto;html=1;exitX=0;exitY=0.5;exitDx=0;exitDy=0;exitPerimeter=0;entryX=0.338;entryY=0.8;entryDx=0;entryDy=0;entryPerimeter=0;fontSize=10;" edge="1" parent="1" source="CgNcNUoA4r0eWXv9V45F-31" target="CgNcNUoA4r0eWXv9V45F-51">
          <mxGeometry relative="1" as="geometry" />
        </mxCell>
        <mxCell id="CgNcNUoA4r0eWXv9V45F-31" value="CADASTRO NÃO PERMITIDO PELA IDADE" style="shape=display;whiteSpace=wrap;html=1;fontSize=10;" vertex="1" parent="1">
          <mxGeometry x="95" y="422.5" width="140" height="55" as="geometry" />
        </mxCell>
        <mxCell id="CgNcNUoA4r0eWXv9V45F-32" value="&lt;font style=&quot;font-size: 10px;&quot;&gt;&amp;nbsp; &lt;br&gt;&amp;nbsp; &amp;nbsp;LISTAR PARTICIPANTES E&amp;nbsp; PALESTRANTES POR EVENTO&lt;/font&gt;" style="shape=display;whiteSpace=wrap;html=1;" vertex="1" parent="1">
          <mxGeometry x="270" y="520" width="140" height="65" as="geometry" />
        </mxCell>
        <mxCell id="CgNcNUoA4r0eWXv9V45F-33" value="&lt;br&gt;NÚMERO DE PARTICIPANTES &amp;lt; 100?" style="html=1;whiteSpace=wrap;aspect=fixed;shape=isoRectangle;fontSize=10;" vertex="1" parent="1">
          <mxGeometry x="271.25000000000006" y="634" width="150" height="90" as="geometry" />
        </mxCell>
        <mxCell id="CgNcNUoA4r0eWXv9V45F-35" value="" style="shape=singleArrow;direction=south;whiteSpace=wrap;html=1;fontSize=10;" vertex="1" parent="1">
          <mxGeometry x="332.63" y="714" width="28.75" height="30" as="geometry" />
        </mxCell>
        <mxCell id="CgNcNUoA4r0eWXv9V45F-66" style="edgeStyle=orthogonalEdgeStyle;rounded=0;orthogonalLoop=1;jettySize=auto;html=1;exitX=0;exitY=0.5;exitDx=0;exitDy=0;exitPerimeter=0;entryX=0.686;entryY=0.6;entryDx=0;entryDy=0;entryPerimeter=0;fontSize=10;" edge="1" parent="1" source="CgNcNUoA4r0eWXv9V45F-37" target="CgNcNUoA4r0eWXv9V45F-51">
          <mxGeometry relative="1" as="geometry" />
        </mxCell>
        <mxCell id="CgNcNUoA4r0eWXv9V45F-37" value="NÃO PERMITIR CADASTRO POR QUANTIDADE &amp;gt;=100" style="shape=display;whiteSpace=wrap;html=1;fontSize=10;" vertex="1" parent="1">
          <mxGeometry x="99" y="647" width="135" height="60" as="geometry" />
        </mxCell>
        <mxCell id="CgNcNUoA4r0eWXv9V45F-38" value="CADASTRO REALIZADO COM SUCESSO" style="shape=display;whiteSpace=wrap;html=1;fontSize=10;" vertex="1" parent="1">
          <mxGeometry x="268" y="760" width="146" height="60" as="geometry" />
        </mxCell>
        <mxCell id="CgNcNUoA4r0eWXv9V45F-39" value="" style="shape=singleArrow;direction=south;whiteSpace=wrap;html=1;fontSize=10;" vertex="1" parent="1">
          <mxGeometry x="332.31" y="822" width="29.87" height="30" as="geometry" />
        </mxCell>
        <mxCell id="CgNcNUoA4r0eWXv9V45F-40" value="FIM" style="ellipse;whiteSpace=wrap;html=1;fontSize=10;" vertex="1" parent="1">
          <mxGeometry x="285.13" y="880" width="123.75" height="60" as="geometry" />
        </mxCell>
        <mxCell id="CgNcNUoA4r0eWXv9V45F-69" style="edgeStyle=orthogonalEdgeStyle;rounded=0;orthogonalLoop=1;jettySize=auto;html=1;exitX=1;exitY=0.5;exitDx=0;exitDy=0;exitPerimeter=0;entryX=0;entryY=0.5;entryDx=0;entryDy=0;fontSize=10;" edge="1" parent="1" source="CgNcNUoA4r0eWXv9V45F-51" target="CgNcNUoA4r0eWXv9V45F-40">
          <mxGeometry relative="1" as="geometry" />
        </mxCell>
        <mxCell id="CgNcNUoA4r0eWXv9V45F-51" value="" style="line;strokeWidth=2;direction=south;html=1;fontSize=10;" vertex="1" parent="1">
          <mxGeometry x="60" y="230" width="10" height="660" as="geometry" />
        </mxCell>
        <mxCell id="CgNcNUoA4r0eWXv9V45F-57" value="" style="shape=singleArrow;direction=south;whiteSpace=wrap;html=1;fontSize=10;" vertex="1" parent="1">
          <mxGeometry x="332.62" y="585" width="28.75" height="30" as="geometry" />
        </mxCell>
        <mxCell id="CgNcNUoA4r0eWXv9V45F-58" value="" style="shape=singleArrow;direction=south;whiteSpace=wrap;html=1;fontSize=10;" vertex="1" parent="1">
          <mxGeometry x="332.63" y="481.5" width="28.75" height="30" as="geometry" />
        </mxCell>
        <mxCell id="CgNcNUoA4r0eWXv9V45F-59" value="" style="shape=singleArrow;direction=south;whiteSpace=wrap;html=1;fontSize=10;" vertex="1" parent="1">
          <mxGeometry x="331.12" y="375" width="28.75" height="30" as="geometry" />
        </mxCell>
        <mxCell id="CgNcNUoA4r0eWXv9V45F-60" value="" style="shape=singleArrow;direction=south;whiteSpace=wrap;html=1;fontSize=10;" vertex="1" parent="1">
          <mxGeometry x="331.13" y="270" width="28.75" height="30" as="geometry" />
        </mxCell>
        <mxCell id="CgNcNUoA4r0eWXv9V45F-61" value="" style="shape=singleArrow;direction=south;whiteSpace=wrap;html=1;fontSize=10;" vertex="1" parent="1">
          <mxGeometry x="330.63" y="70" width="28.75" height="30" as="geometry" />
        </mxCell>
        <mxCell id="CgNcNUoA4r0eWXv9V45F-62" value="" style="shape=singleArrow;direction=south;whiteSpace=wrap;html=1;fontSize=10;" vertex="1" parent="1">
          <mxGeometry x="331.12" y="155" width="28.75" height="30" as="geometry" />
        </mxCell>
        <mxCell id="CgNcNUoA4r0eWXv9V45F-63" value="" style="shape=singleArrow;direction=west;whiteSpace=wrap;html=1;" vertex="1" parent="1">
          <mxGeometry x="245.84" y="432.5" width="30" height="25" as="geometry" />
        </mxCell>
        <mxCell id="CgNcNUoA4r0eWXv9V45F-64" value="" style="shape=singleArrow;direction=west;whiteSpace=wrap;html=1;" vertex="1" parent="1">
          <mxGeometry x="241" y="666.5" width="30" height="25" as="geometry" />
        </mxCell>
      </root>
    </mxGraphModel>
  </diagram>
</mxfile>
